<svg width="18" height="18" viewBox="0 0 18 18" fill="none" xmlns="http://www.w3.org/2000/svg">
<path d="M16.6519 3.10352H1.34807C0.603527 3.10352 0 3.70704 0 4.45158V7.03455H18V4.45158C18 3.70704 17.3965 3.10352 16.6519 3.10352Z" fill="#82AFFF"/>
<path d="M0 13.5485C0 14.293 0.603527 14.8966 1.34807 14.8966H16.6519C17.3964 14.8966 18 14.2931 18 13.5485V10.9656H0V13.5485Z" fill="#82AFFF"/>
<path d="M18 7.03442H0V10.9652H18V7.03442Z" fill="#F5F5F5"/>
<path d="M10.5518 8.92241H9.43436C9.45521 8.90659 9.47169 8.89102 9.4866 8.87632C9.51388 8.84964 9.53557 8.82844 9.59312 8.80478C9.65099 8.78052 9.6813 8.78024 9.71965 8.77964C9.76585 8.77933 9.81816 8.77845 9.90362 8.74326C9.98895 8.70779 10.0262 8.6714 10.0591 8.6393C10.0864 8.61262 10.1081 8.59142 10.1658 8.56744C10.2232 8.5435 10.2534 8.54318 10.2915 8.5429C10.3376 8.54227 10.3899 8.54171 10.4753 8.50623L10.4156 8.36315C10.3582 8.38709 10.328 8.38741 10.2899 8.38769C10.2438 8.38832 10.1916 8.38888 10.1062 8.42407C10.0209 8.45955 9.98364 8.49593 9.95073 8.52803C9.92345 8.55471 9.90176 8.57591 9.84421 8.59957C9.78634 8.62383 9.75604 8.62411 9.71768 8.62471C9.67149 8.62503 9.61918 8.62591 9.53371 8.66138C9.44842 8.69654 9.41112 8.73324 9.37821 8.76534C9.35135 8.79146 9.32917 8.81237 9.27391 8.83572L10.1521 7.95762L10.0424 7.8479L9.2519 8.63828C9.25538 8.61244 9.25633 8.58945 9.25654 8.5686C9.257 8.53011 9.25731 8.50008 9.28125 8.44222C9.30519 8.38435 9.32639 8.3628 9.35311 8.33555C9.38553 8.3025 9.42205 8.26496 9.45749 8.17949C9.49279 8.09403 9.49342 8.04189 9.49388 7.99584C9.49434 7.95766 9.49465 7.92732 9.51842 7.86977C9.54236 7.81218 9.56342 7.79066 9.5901 7.76338C9.62237 7.73034 9.65887 7.69304 9.69423 7.60789L9.5509 7.54851C9.52696 7.60606 9.5059 7.62761 9.47922 7.65489C9.44695 7.68794 9.41045 7.72524 9.37509 7.81039C9.33979 7.89585 9.33916 7.94799 9.3387 7.99404C9.33824 8.03222 9.33793 8.06256 9.31416 8.12011C9.29022 8.17798 9.26902 8.19953 9.2423 8.22678C9.20989 8.25982 9.17336 8.29737 9.13792 8.38284C9.10262 8.4683 9.10199 8.52075 9.10143 8.56681C9.10111 8.60418 9.10006 8.63438 9.07766 8.68986V7.44824H8.92248V8.56561C8.90666 8.54491 8.89113 8.52845 8.87657 8.51355C8.84978 8.48627 8.82869 8.46443 8.80471 8.40688C8.78077 8.34902 8.78031 8.31871 8.77986 8.28018C8.7794 8.23409 8.7788 8.18167 8.74336 8.09621C8.70807 8.01106 8.6715 7.97379 8.63923 7.94071C8.61255 7.91343 8.59152 7.89191 8.56755 7.83433C8.54378 7.77674 8.54346 7.74644 8.54301 7.70826C8.54255 7.66217 8.54195 7.61007 8.50662 7.52488L8.36329 7.58426C8.38705 7.64185 8.38737 7.67187 8.38783 7.71002C8.38828 7.75611 8.38888 7.80821 8.42421 7.89367C8.45951 7.97882 8.49607 8.01609 8.52835 8.04917C8.55503 8.07645 8.57605 8.09796 8.60003 8.15555C8.62397 8.21342 8.62443 8.24372 8.62489 8.28225C8.62534 8.32834 8.62594 8.38076 8.66138 8.46623C8.69668 8.55169 8.73324 8.58896 8.76551 8.622C8.79181 8.64872 8.81262 8.67105 8.83596 8.72614L7.95769 7.84797L7.84797 7.95769L8.72487 8.83449C8.67678 8.81266 8.65357 8.79258 8.62837 8.76811C8.59521 8.7357 8.55777 8.69903 8.47199 8.66356C8.38653 8.6284 8.33425 8.62749 8.28802 8.62689C8.24952 8.62657 8.21925 8.62601 8.16089 8.60175C8.10253 8.57781 8.08074 8.55661 8.053 8.52965C8.01985 8.49752 7.98223 8.46088 7.89631 8.42509C7.81053 8.38962 7.75807 8.38902 7.71174 8.38843C7.6731 8.38779 7.64266 8.38723 7.5843 8.36297L7.52492 8.50662C7.6107 8.54209 7.66315 8.54269 7.70949 8.54329C7.74812 8.54392 7.77857 8.54448 7.83693 8.56874C7.89543 8.59268 7.91723 8.61388 7.94496 8.64085C7.97812 8.67326 8.01573 8.70961 8.10148 8.74512C8.18726 8.78088 8.23971 8.78151 8.28591 8.78211C8.32441 8.78274 8.35468 8.78298 8.41275 8.80724C8.4708 8.83118 8.49249 8.85238 8.51991 8.8791C8.53401 8.89295 8.54976 8.90754 8.56881 8.92245H7.44824V9.07763H8.68764C8.63867 9.09626 8.60805 9.09862 8.57296 9.09914C8.52677 9.09946 8.47445 9.10034 8.38885 9.13553C8.30324 9.171 8.26563 9.20764 8.23247 9.23981C8.20488 9.26677 8.18322 9.28797 8.12518 9.31191C8.06682 9.33617 8.03637 9.33677 7.99773 9.33736C7.95136 9.338 7.89895 9.33856 7.81316 9.37403C7.72724 9.40979 7.68966 9.44614 7.65647 9.47859C7.62873 9.50555 7.60694 9.52675 7.54858 9.55069L7.60796 9.69434C7.69374 9.65859 7.73132 9.62223 7.76447 9.58979C7.79221 9.56282 7.81401 9.54162 7.87251 9.51768C7.93087 9.49342 7.96131 9.49282 7.99995 9.49223C8.04632 9.49159 8.09874 9.49103 8.1847 9.45524C8.27016 9.41977 8.3076 9.38338 8.34075 9.35097C8.36818 9.32429 8.39001 9.30309 8.44823 9.27911C8.50609 9.25485 8.53657 9.25457 8.57493 9.25397C8.59455 9.25387 8.61666 9.25257 8.6406 9.24961L7.84786 10.0422L7.95759 10.152L8.83407 9.27563C8.81248 9.32351 8.79255 9.34661 8.76801 9.37189C8.73573 9.40493 8.69924 9.44248 8.66373 9.52795C8.62826 9.61341 8.62749 9.66618 8.62707 9.7122C8.62643 9.7507 8.62619 9.78096 8.60204 9.83918C8.57795 9.89768 8.55658 9.91948 8.52975 9.94708C8.49734 9.98012 8.46081 10.018 8.4252 10.1038C8.38959 10.1896 8.38895 10.242 8.38839 10.2883C8.38776 10.3268 8.38734 10.3574 8.36325 10.4156L8.50659 10.475C8.5422 10.3892 8.54283 10.3367 8.54339 10.2904C8.54403 10.2519 8.54445 10.2213 8.56853 10.1631C8.59261 10.1046 8.61399 10.0829 8.64081 10.0553C8.67323 10.0222 8.70975 9.98434 8.74537 9.89856C8.78084 9.8131 8.78161 9.76033 8.78203 9.71431C8.78267 9.67581 8.78291 9.64554 8.80707 9.58732C8.83101 9.52914 8.85221 9.50759 8.87903 9.48003C8.89281 9.46589 8.90747 9.45014 8.92238 9.43098V10.5517H9.07756V9.31237C9.09605 9.36123 9.09841 9.39179 9.09893 9.42701C9.09939 9.4731 9.10013 9.52552 9.1356 9.61098C9.1709 9.69677 9.20757 9.73435 9.23987 9.76736C9.26666 9.79496 9.2879 9.81675 9.31198 9.87494C9.33606 9.93312 9.33652 9.96374 9.33712 10.0022C9.33775 10.0486 9.33831 10.101 9.37393 10.1868C9.40954 10.2726 9.44603 10.3105 9.47848 10.3435C9.50527 10.3711 9.52664 10.3929 9.55076 10.4514L9.69409 10.392C9.65848 10.3062 9.62199 10.2683 9.58954 10.2353C9.56275 10.2077 9.54134 10.1859 9.51726 10.1274C9.49318 10.0692 9.49272 10.0386 9.49212 10.0001C9.49149 9.95376 9.49093 9.90134 9.45531 9.81556C9.41984 9.72978 9.38335 9.6922 9.35104 9.65918C9.32425 9.63159 9.30302 9.60979 9.27893 9.55161C9.25485 9.49374 9.25454 9.46343 9.2539 9.4249C9.25369 9.40532 9.25243 9.38317 9.24947 9.35923L10.0423 10.152L10.152 10.0423L9.36166 9.25204C9.38732 9.25545 9.41031 9.25647 9.43102 9.25675C9.46934 9.25707 9.49954 9.25738 9.55741 9.28129C9.61527 9.30555 9.63696 9.32643 9.66439 9.35339C9.69743 9.38553 9.73484 9.42216 9.82034 9.45767C9.90563 9.49282 9.95794 9.49342 10.004 9.49374C10.0422 9.49437 10.0723 9.49462 10.1299 9.51859C10.1875 9.54222 10.209 9.56345 10.2363 9.59014C10.2694 9.62227 10.3067 9.6589 10.3919 9.69441L10.4513 9.55076C10.3937 9.52714 10.3722 9.5059 10.3449 9.47922C10.3119 9.44709 10.2746 9.41045 10.1893 9.37495C10.104 9.33979 10.0517 9.33919 10.0056 9.33888C9.96747 9.33824 9.9373 9.338 9.87972 9.31402C9.82185 9.29008 9.80016 9.26916 9.77274 9.24216C9.73969 9.21003 9.70228 9.17339 9.61678 9.1382C9.53132 9.10245 9.47904 9.10182 9.43281 9.10154C9.3952 9.1009 9.36471 9.1002 9.30892 9.07759H10.5517V8.92241H10.5518Z" fill="#F09146"/>
<path d="M9.00002 9.77592C9.42854 9.77592 9.77592 9.42854 9.77592 9.00002C9.77592 8.5715 9.42854 8.22412 9.00002 8.22412C8.5715 8.22412 8.22412 8.5715 8.22412 9.00002C8.22412 9.42854 8.5715 9.77592 9.00002 9.77592Z" fill="#FFE15A"/>
</svg>
