<svg width="18" height="18" viewBox="0 0 18 18" fill="none" xmlns="http://www.w3.org/2000/svg">
<g id="flags/paraguay">
<path id="Vector" d="M16.6519 3.10352H1.34807C0.603527 3.10352 0 3.70704 0 4.45158V7.03455H18V4.45158C18 3.70704 17.3965 3.10352 16.6519 3.10352Z" fill="#FF4B55"/>
<path id="Vector_2" d="M0 13.5485C0 14.293 0.603527 14.8966 1.34807 14.8966H16.6519C17.3964 14.8966 18 14.2931 18 13.5485V10.9656H0V13.5485Z" fill="#41479B"/>
<path id="Vector_3" d="M18 7.03442H0V10.9652H18V7.03442Z" fill="#F5F5F5"/>
<path id="Vector_4" d="M8.99997 7.44824C8.143 7.44824 7.44824 8.14296 7.44824 8.99997C7.44824 9.85697 8.143 10.5517 8.99997 10.5517C9.85694 10.5517 10.5517 9.85697 10.5517 8.99997C10.5517 8.14296 9.85694 7.44824 8.99997 7.44824ZM8.99997 10.1702C8.35362 10.1702 7.82969 9.64632 7.82969 8.99997C7.82969 8.35369 8.35362 7.82969 8.99997 7.82969C9.64632 7.82969 10.1702 8.35362 10.1702 8.99997C10.1702 9.64625 9.64632 10.1702 8.99997 10.1702Z" fill="#FF4B55"/>
<path id="Vector_5" d="M8.99991 9.53815C9.29718 9.53815 9.53815 9.29718 9.53815 8.99991C9.53815 8.70265 9.29718 8.46167 8.99991 8.46167C8.70265 8.46167 8.46167 8.70265 8.46167 8.99991C8.46167 9.29718 8.70265 9.53815 8.99991 9.53815Z" fill="#41479B"/>
<path id="Vector_6" d="M9.03519 8.5924L9.12192 8.85255L9.39611 8.8547C9.43161 8.85498 9.44634 8.9003 9.41776 8.92139L9.19719 9.08427L9.27991 9.34569C9.29064 9.37951 9.25211 9.40753 9.22321 9.38689L9.00011 9.22746L8.777 9.38689C8.74814 9.40753 8.70957 9.37951 8.7203 9.34569L8.80302 9.08427L8.58245 8.92139C8.5539 8.9003 8.5686 8.85498 8.60411 8.8547L8.87829 8.85255L8.96502 8.5924C8.97627 8.55872 9.02394 8.55872 9.03519 8.5924Z" fill="#FFE15A"/>
<path id="Vector_7" d="M10.018 9.01254C10.018 9.01254 10.0488 8.8703 9.89742 9.04098C9.89742 9.04098 9.89964 8.99239 9.89535 8.95235C9.9286 8.91631 9.96991 8.83753 9.96021 8.66927C9.96021 8.66927 9.93648 8.52569 9.85857 8.74008C9.85857 8.74008 9.8373 8.67683 9.8147 8.64181C9.83347 8.6029 9.84795 8.53195 9.80295 8.39758C9.80295 8.39758 9.75033 8.28269 9.73394 8.48013C9.73394 8.48013 9.69074 8.41551 9.66268 8.39962C9.6681 8.36777 9.66384 8.31307 9.60028 8.22451C9.60028 8.22451 9.53686 8.15349 9.56888 8.29925C9.56888 8.29925 9.51084 8.25225 9.49228 8.25777C9.48265 8.22992 9.45477 8.18285 9.36115 8.1209C9.36115 8.1209 9.28004 8.0765 9.3731 8.19241C9.3731 8.19241 9.29087 8.15979 9.29182 8.17849C9.2928 8.19719 9.33256 8.23168 9.36522 8.24708C9.36522 8.24708 9.2446 8.2596 9.2941 8.28649C9.2941 8.28649 9.41648 8.32871 9.49006 8.28807C9.49597 8.30948 9.50796 8.33349 9.52575 8.35076C9.52575 8.35076 9.38217 8.32291 9.42105 8.36598C9.42105 8.36598 9.52874 8.44512 9.63515 8.43299C9.63466 8.46231 9.64352 8.50017 9.6591 8.52854C9.6591 8.52854 9.48788 8.43703 9.52033 8.50689C9.52033 8.50689 9.62271 8.64382 9.7589 8.67353C9.75331 8.70397 9.75342 8.74078 9.7608 8.77126C9.7608 8.77126 9.59831 8.6178 9.61318 8.70524C9.61318 8.70524 9.6811 8.88531 9.81878 8.96181C9.80756 8.98466 9.79839 9.01022 9.79501 9.03409C9.79501 9.03409 9.70037 8.83155 9.68205 8.91835C9.68205 8.91835 9.67892 9.12064 9.78692 9.24162C9.76393 9.26074 9.7414 9.28749 9.72758 9.31376C9.72758 9.31376 9.70687 9.09125 9.66033 9.16673C9.66033 9.16673 9.59603 9.33534 9.63955 9.48064C9.61076 9.48915 9.5794 9.50486 9.55619 9.52367C9.55619 9.52367 9.62485 9.31094 9.55233 9.36199C9.55233 9.36199 9.42316 9.50174 9.41328 9.65896C9.37904 9.65825 9.33267 9.67059 9.29906 9.69067C9.29906 9.69067 9.39732 9.48996 9.31822 9.53011C9.31822 9.53011 9.17731 9.64521 9.14093 9.79459C9.1076 9.81361 9.051 9.84592 8.99443 9.87798C8.96153 9.85889 8.92957 9.84033 8.90225 9.82437L8.90317 9.82289L8.58286 9.55437L8.58922 9.64219L8.42838 9.35454L8.40852 9.45241L8.35585 9.13442L8.30913 9.18136L8.3272 8.88471L8.26631 8.91755L8.37691 8.6969L8.32495 8.71156L8.46157 8.58057L8.38932 8.58672L8.56208 8.50829L8.49894 8.49859L8.66762 8.41319L8.59495 8.40968L8.81359 8.33402L8.77354 8.29901L8.96279 8.24318L8.73603 8.22588L8.80062 8.14639L8.62761 8.23492L8.65243 8.11524L8.50108 8.27109L8.52738 8.16197L8.38574 8.30291L8.39488 8.19653L8.25485 8.43369L8.23678 8.32755L8.12041 8.59383L8.08838 8.47781L8.03642 8.80803L7.99308 8.75892L8.05006 9.07744L7.97778 9.02322L8.11029 9.30933C8.11029 9.30933 8.01392 9.26717 8.00187 9.26717C7.98981 9.26717 8.23224 9.51341 8.23224 9.51341L8.10575 9.49987L8.35016 9.67172L8.25935 9.69415L8.46266 9.77318L8.41295 9.81157L8.83384 9.84166C8.83384 9.84166 8.87441 9.87545 8.9296 9.91458C8.90046 9.93099 8.87483 9.94534 8.85897 9.95402C8.84294 9.96274 8.82421 9.96362 8.80737 9.95659C8.76739 9.93985 8.7096 9.91619 8.68172 9.90505C8.68172 9.90505 8.68442 10.0247 8.80898 10.0277C8.86014 10.0288 8.92989 9.99628 8.99475 9.95778C9.06116 9.9992 9.13446 10.0357 9.1874 10.0345C9.30926 10.0315 9.31193 9.91187 9.31193 9.91187C9.28465 9.92305 9.22804 9.94667 9.18899 9.96341C9.1725 9.97044 9.15415 9.96952 9.1385 9.96084C9.12124 9.95117 9.09283 9.93497 9.06028 9.91616C9.09354 9.89362 9.12142 9.87316 9.141 9.85808C9.17165 9.88216 9.2594 9.92449 9.45551 9.85087C9.45551 9.85087 9.58558 9.78555 9.35774 9.77483C9.35774 9.77483 9.40003 9.74379 9.42858 9.71433C9.46595 9.73356 9.5583 9.75634 9.73387 9.65994C9.73387 9.65994 9.8533 9.57672 9.62629 9.59859C9.62629 9.59859 9.6566 9.56906 9.68044 9.539C9.7196 9.5434 9.81631 9.53296 9.94456 9.36888C9.94456 9.36888 10.0216 9.24538 9.82152 9.35492C9.82152 9.35492 9.84739 9.29326 9.85347 9.25202C9.89774 9.23065 9.96513 9.17253 10.018 9.01254Z" fill="#64C86E"/>
</g>
</svg>
