<svg viewBox="0 0 12 14" fill="none" xmlns="http://www.w3.org/2000/svg">
<g id="g265">
<g id="g275">
<path id="path273" d="M8.2559 0.583172H2.13201C1.69088 0.583172 1.33325 0.940801 1.33325 1.38193V12.6177C1.33325 13.0589 1.69088 13.4165 2.13201 13.4165H10.1196C10.5607 13.4165 10.9183 13.0589 10.9183 12.6177V3.24577L8.2559 0.583172Z" stroke="#1C1C1C" stroke-miterlimit="10" stroke-linecap="round" stroke-linejoin="round"/>
<path id="path277" d="M8.25586 0.583089V3.24561H10.9184L8.25586 0.583089Z" stroke="#1C1C1C" stroke-miterlimit="10" stroke-linecap="round" stroke-linejoin="round"/>
</g>
<g id="g291">
<path id="path281" d="M6.12576 6.86561L4.83569 9.1001H7.41583L6.12576 6.86561Z" stroke="#1C1C1C" stroke-miterlimit="10" stroke-linecap="round" stroke-linejoin="round"/>
<path id="path285" d="M6.12582 6.86572L6.72124 5.83442C6.9859 5.37604 6.65511 4.8031 6.12582 4.8031C5.59654 4.8031 5.26575 5.37604 5.53041 5.83442L6.12582 6.86572Z" stroke="#1C1C1C" stroke-miterlimit="10" stroke-linecap="round" stroke-linejoin="round"/>
<path id="path289" d="M7.41577 9.10003L8.01119 10.1313C8.27584 10.5897 8.9374 10.5897 9.20203 10.1313C9.46666 9.67298 9.13586 9.10003 8.60664 9.10003H7.41577Z" stroke="#1C1C1C" stroke-miterlimit="10" stroke-linecap="round" stroke-linejoin="round"/>
<path id="path293" d="M4.83569 9.10003L4.24027 10.1313C3.97562 10.5897 3.31406 10.5897 3.04943 10.1313C2.78481 9.67298 3.1156 9.10003 3.64483 9.10003H4.83569Z" stroke="#1C1C1C" stroke-miterlimit="10" stroke-linecap="round" stroke-linejoin="round"/>
</g>
</g>
</svg>
