<?xml version="1.0" encoding="utf-8"?>
<!-- Generator: Adobe Illustrator 26.0.3, SVG Export Plug-In . SVG Version: 6.00 Build 0)  -->
<svg version="1.1" id="Layer_1" xmlns="http://www.w3.org/2000/svg" xmlns:xlink="http://www.w3.org/1999/xlink" x="0px" y="0px"
	 viewBox="0 0 404.2 149.3" style="enable-background:new 0 0 404.2 149.3;" xml:space="preserve">
<style type="text/css">
	.st0{fill:#6D6A69;}
	.st1{fill-rule:evenodd;clip-rule:evenodd;fill:#6D6A69;}
	.st2{fill:#F59A00;}
</style>
<g>
	<path d="M184.1,32.7h-26v49.7c0,6.4,2.3,12.5,6.9,18.3c4.6,5.8,14.9,8.8,31.1,8.8c23.8,0,35.7-9.2,35.7-27.7V32.7h-19v48.4
		c0,4.2-0.8,7.7-2.6,10.4c-1.7,2.8-5.4,4.2-11.2,4.2c-4.3,0-7.4-0.7-9.6-1.9c-2.2-1.3-3.6-2.9-4.2-5c-0.7-1.9-1.1-4.4-1.1-7.2V32.7
		L184.1,32.7z"/>
	<polygon points="148.7,107.3 148.7,94.8 110.6,94.8 148.2,32.7 79.4,32.7 79.4,45.2 112.2,45.2 74.1,107.3 148.7,107.3 	"/>
	<polygon points="0,32.7 0,45.2 22,45.2 22,107.3 48,107.3 48,45.2 69.9,45.2 69.9,32.7 0,32.7 	"/>
	<path d="M315.1,68.2c1.8-3,2.7-7,2.7-12.1c0-8.1-2.6-14.1-7.9-17.7c-5.2-3.8-12.1-5.6-20.7-5.6h-45.1v74.7h26V70.2l21.9,37.3
		l28.1-0.1l-21.6-29.9c0.2-0.1,1.4-0.2,3.6-0.5c2.1-0.3,4.4-1.1,6.7-2.4C311.2,73.3,313.3,71.2,315.1,68.2L315.1,68.2z M280.5,45.2
		c1.7,0,3.1,0.3,4.3,0.6c1.7,0.6,3.1,1.3,4,2.4c2.2,2.1,3.2,5.3,3.2,9.5c0,2.2-0.2,3.9-0.5,5c-0.4,1.4-1,2.5-2,3.6
		c-1,1.2-2.4,2.1-4.1,2.7c-1.6,0.7-3.1,1-4.4,1.1h-10.7V45.2H280.5L280.5,45.2z"/>
	<path class="st0" d="M39.4,135.1v-16.4h-4.2v15.2c0,1.5-0.4,2.7-1.1,3.4c-0.8,0.8-1.9,1.2-3.4,1.2c-1.5,0-2.7-0.3-3.4-1
		c-0.7-0.7-1.1-1.9-1.1-3.6v-15.2H22v16.4c0,0.9,0.1,1.8,0.4,2.6c0.3,0.8,0.8,1.5,1.4,2.1c0.7,0.6,1.6,1.1,2.7,1.5
		c1.1,0.4,2.5,0.5,4.1,0.5c2.8,0,4.9-0.6,6.4-1.8C38.6,138.9,39.4,137.2,39.4,135.1L39.4,135.1z"/>
	<path class="st0" d="M58.2,135.7c0-0.5-0.1-1.1-0.2-1.6c-0.1-0.5-0.4-1-0.7-1.4c-0.4-0.4-0.8-0.9-1.4-1.2c-0.6-0.4-1.4-0.7-2.3-0.9
		l-2.3-0.6c-0.9-0.2-1.6-0.5-1.9-0.8c-0.4-0.3-0.5-0.8-0.5-1.3c0-0.7,0.3-1.3,0.8-1.7c0.5-0.4,1.2-0.6,2-0.6c0.7,0,1.4,0.1,2.2,0.3
		c0.7,0.2,1.5,0.6,2.3,1l1.3-2.8c-0.8-0.4-1.7-0.8-2.7-1.1c-1-0.3-2.2-0.5-3.4-0.5c-1,0-2,0.1-2.8,0.4c-0.8,0.3-1.6,0.7-2.2,1.2
		c-0.6,0.5-1.1,1.1-1.4,1.8c-0.3,0.7-0.5,1.5-0.5,2.4c0,1.3,0.4,2.4,1.2,3.3c0.8,0.9,1.9,1.5,3.2,1.8l2.2,0.5c1,0.2,1.8,0.5,2.3,0.9
		c0.5,0.4,0.7,1,0.7,1.7c0,0.8-0.3,1.4-0.8,1.9c-0.6,0.5-1.3,0.7-2.2,0.7c-1,0-2.1-0.2-3.2-0.6c-1.1-0.4-2-0.8-2.8-1.3l-1.4,2.9
		c1.2,0.7,2.4,1.2,3.6,1.5c1.2,0.4,2.4,0.5,3.5,0.5c1.1,0,2.1-0.2,3.1-0.5c0.9-0.3,1.7-0.7,2.4-1.3c0.7-0.5,1.2-1.2,1.5-2
		C58.1,137.5,58.2,136.6,58.2,135.7L58.2,135.7z"/>
	<path class="st1" d="M66.1,133.3h11.1v-0.8c0-2.1-0.2-3.8-0.6-5.1c-0.4-1.2-1-2.2-1.8-3c-0.8-0.7-1.6-1.2-2.4-1.5
		c-0.8-0.3-1.7-0.4-2.7-0.4c-1.2,0-2.2,0.2-3.1,0.6c-0.9,0.4-1.8,1-2.5,1.9c-0.8,0.9-1.4,2-1.8,3.1c-0.4,1.1-0.5,2.5-0.5,4.1
		c0,1.5,0.2,2.8,0.6,4c0.4,1.2,1,2.2,1.7,3c0.7,0.8,1.6,1.5,2.7,1.9c1,0.5,2.2,0.7,3.5,0.7c2.5,0,4.7-0.8,6.6-2.5l-1.6-2.5
		c-1.4,1.2-3,1.8-4.6,1.8c-0.9,0-1.7-0.2-2.2-0.5c-0.6-0.3-1.1-0.7-1.4-1.2c-0.4-0.5-0.6-1.1-0.7-1.7c-0.1-0.6-0.2-1.3-0.2-1.9
		V133.3L66.1,133.3z M73,130.4h-6.9c0-1.5,0.3-2.7,0.9-3.5c0.6-0.8,1.5-1.2,2.7-1.2c1,0,1.9,0.4,2.5,1.2
		C72.7,127.7,73,128.9,73,130.4L73,130.4z"/>
	<path class="st0" d="M90.4,126.6l1.2-3.8c-0.4-0.2-0.9-0.3-1.4-0.3c-0.9,0-1.7,0.2-2.5,0.7c-0.8,0.5-1.5,1.2-2.2,2.2
		c0-1.1-0.2-2.1-0.7-2.9l-3.7,0.9c0.2,0.6,0.4,1.2,0.5,2c0.1,0.8,0.2,1.8,0.2,2.9v13h4V129c0.2-0.8,0.6-1.4,1.2-1.9
		c0.6-0.5,1.4-0.8,2.2-0.8c0.2,0,0.4,0,0.6,0.1C90,126.4,90.2,126.5,90.4,126.6L90.4,126.6z"/>
	<polygon class="st0" points="101.8,141.5 116.1,141.5 116.1,138.2 106,138.2 106,131.1 113.7,131.1 113.7,128 106,128 106,121.8 
		115.2,121.8 115.7,118.7 101.8,118.7 101.8,141.5 	"/>
	<path class="st0" d="M131.9,141.5h5l-6.8-10.1l5.4-8.4H131c-0.1,0.2-0.4,0.5-0.6,1c-0.3,0.5-0.6,1-0.9,1.6
		c-0.3,0.6-0.6,1.2-0.9,1.7c-0.3,0.6-0.5,1-0.6,1.3c-0.2-0.4-0.5-0.9-0.8-1.5c-0.3-0.5-0.6-1.1-0.9-1.6c-0.3-0.5-0.6-1.1-0.9-1.6
		c-0.3-0.5-0.5-0.9-0.8-1.3l-4.3,0.9l5.3,7.9l-6.9,10h5.1c0.2-0.2,0.4-0.7,0.8-1.3c0.4-0.6,0.8-1.3,1.2-2c0.4-0.7,0.8-1.4,1.2-2.1
		c0.4-0.7,0.7-1.2,0.8-1.5c0.1,0.2,0.3,0.6,0.7,1.2c0.4,0.6,0.8,1.3,1.2,2.1c0.4,0.8,0.9,1.5,1.3,2.2
		C131.5,140.7,131.8,141.2,131.9,141.5L131.9,141.5z"/>
	<path class="st1" d="M155.3,131.8c0-1.6-0.2-3-0.6-4.2c-0.4-1.2-0.9-2.1-1.5-2.9c-0.6-0.7-1.4-1.3-2.2-1.7
		c-0.8-0.4-1.7-0.5-2.7-0.5c-1,0-1.9,0.2-2.8,0.6c-0.9,0.4-1.6,0.9-2.2,1.6c0-0.6-0.1-1-0.1-1.3s-0.1-0.6-0.2-0.9l-3.7,0.7
		c0.1,0.3,0.1,0.7,0.2,1c0,0.3,0.1,0.6,0.1,1s0,0.7,0.1,1.2c0,0.4,0,0.9,0,1.5v21.5l3.8-1v-6.2c0-0.5,0-0.9,0-1.3l0-0.5
		c1.3,1,2.8,1.5,4.4,1.5c1.2,0,2.2-0.2,3.1-0.7c0.9-0.5,1.7-1.1,2.3-2c0.6-0.9,1.1-1.9,1.4-3.2C155.1,134.7,155.3,133.4,155.3,131.8
		L155.3,131.8z M150.9,132.3c0,2.2-0.3,3.9-0.9,4.9c-0.6,1-1.6,1.5-3,1.5c-0.6,0-1.2-0.2-1.8-0.5c-0.6-0.3-1.1-0.7-1.6-1.2v-9.3
		c1.1-1.3,2.4-1.9,3.9-1.9c1.3,0,2.2,0.5,2.7,1.6C150.7,128.6,150.9,130.2,150.9,132.3L150.9,132.3z"/>
	<path class="st1" d="M163.5,133.3h11.1v-0.8c0-2.1-0.2-3.8-0.6-5.1s-1-2.2-1.8-3c-0.8-0.7-1.6-1.2-2.4-1.5
		c-0.8-0.3-1.7-0.4-2.7-0.4c-1.2,0-2.2,0.2-3.1,0.6c-0.9,0.4-1.8,1-2.5,1.9c-0.8,0.9-1.4,2-1.8,3.1c-0.4,1.1-0.5,2.5-0.5,4.1
		c0,1.5,0.2,2.8,0.6,4c0.4,1.2,1,2.2,1.7,3c0.7,0.8,1.6,1.5,2.7,1.9c1,0.5,2.2,0.7,3.5,0.7c2.5,0,4.7-0.8,6.6-2.5l-1.6-2.5
		c-1.4,1.2-3,1.8-4.6,1.8c-0.9,0-1.7-0.2-2.2-0.5c-0.6-0.3-1.1-0.7-1.4-1.2c-0.4-0.5-0.6-1.1-0.7-1.7c-0.1-0.6-0.2-1.3-0.2-1.9
		V133.3L163.5,133.3z M170.4,130.4h-6.9c0-1.5,0.3-2.7,0.9-3.5c0.6-0.8,1.5-1.2,2.7-1.2c1,0,1.9,0.4,2.5,1.2
		C170.1,127.7,170.4,128.9,170.4,130.4L170.4,130.4z"/>
	<path class="st0" d="M187.8,126.6l1.2-3.8c-0.4-0.2-0.9-0.3-1.4-0.3c-0.9,0-1.7,0.2-2.5,0.7c-0.8,0.5-1.5,1.2-2.2,2.2
		c0-1.1-0.2-2.1-0.7-2.9l-3.7,0.9c0.2,0.6,0.4,1.2,0.5,2c0.1,0.8,0.2,1.8,0.2,2.9v13h4V129c0.2-0.8,0.6-1.4,1.2-1.9s1.4-0.8,2.2-0.8
		c0.2,0,0.4,0,0.6,0.1C187.4,126.4,187.6,126.5,187.8,126.6L187.8,126.6z"/>
	<path class="st1" d="M192.6,141.5h4v-18.9l-4,0.7V141.5L192.6,141.5z M197.3,117.6c0-0.8-0.3-1.4-0.8-1.9c-0.5-0.5-1.1-0.8-1.8-0.8
		c-0.7,0-1.4,0.3-1.9,0.8c-0.5,0.5-0.8,1.2-0.8,1.9c0,0.7,0.2,1.4,0.7,1.9c0.5,0.5,1.1,0.8,1.8,0.8c0.7,0,1.4-0.3,1.9-0.8
		C197,118.9,197.3,118.3,197.3,117.6L197.3,117.6z"/>
	<path class="st1" d="M206,133.3h11.1v-0.8c0-2.1-0.2-3.8-0.6-5.1c-0.4-1.2-1-2.2-1.8-3c-0.8-0.7-1.6-1.2-2.4-1.5
		c-0.8-0.3-1.7-0.4-2.7-0.4c-1.2,0-2.2,0.2-3.1,0.6c-0.9,0.4-1.8,1-2.5,1.9c-0.8,0.9-1.4,2-1.8,3.1c-0.4,1.1-0.5,2.5-0.5,4.1
		c0,1.5,0.2,2.8,0.6,4c0.4,1.2,1,2.2,1.7,3c0.7,0.8,1.6,1.5,2.7,1.9c1,0.5,2.2,0.7,3.5,0.7c2.5,0,4.7-0.8,6.6-2.5l-1.6-2.5
		c-1.4,1.2-3,1.8-4.6,1.8c-0.9,0-1.7-0.2-2.2-0.5c-0.6-0.3-1.1-0.7-1.4-1.2c-0.4-0.5-0.6-1.1-0.7-1.7c-0.1-0.6-0.2-1.3-0.2-1.9
		V133.3L206,133.3z M212.9,130.4H206c0-1.5,0.3-2.7,0.9-3.5c0.6-0.8,1.5-1.2,2.7-1.2c1,0,1.8,0.4,2.5,1.2
		C212.6,127.7,212.9,128.9,212.9,130.4L212.9,130.4z"/>
	<path class="st0" d="M231.6,141.5h4v-13.8c0-1.7-0.4-3-1.3-3.8c-0.9-0.9-2-1.3-3.5-1.3c-1,0-2,0.2-2.8,0.6
		c-0.9,0.4-1.8,1.1-2.8,1.9c0-0.5-0.1-0.9-0.2-1.4c-0.1-0.4-0.3-0.8-0.5-1.3l-3.7,1c0.3,0.7,0.4,1.3,0.5,2c0.1,0.6,0.1,1.5,0.1,2.4
		v13.6h4v-13.4c0.6-0.6,1.3-1.1,2-1.5c0.7-0.4,1.4-0.6,2-0.6c0.8,0,1.3,0.2,1.6,0.7c0.3,0.4,0.5,1.3,0.5,2.5V141.5L231.6,141.5z"/>
	<path class="st0" d="M254.1,139.5l-1.9-2.5c-1.2,1.2-2.5,1.8-3.8,1.8c-1,0-1.8-0.4-2.5-1.1c-0.8-0.9-1.3-2.6-1.3-5
		c0-1.2,0.1-2.2,0.2-3c0.1-0.8,0.3-1.5,0.6-2.1c0.6-1.2,1.6-1.9,2.9-1.9c1,0,2,0.5,3.1,1.4l2-2.7c-0.8-0.8-1.6-1.3-2.4-1.6
		c-0.8-0.3-1.7-0.4-2.7-0.4c-1,0-2,0.2-3,0.6c-1,0.4-1.9,1-2.6,1.8c-0.8,0.8-1.4,1.9-1.8,3.1c-0.5,1.2-0.7,2.7-0.7,4.4
		c0,3,0.7,5.4,2,7c1.3,1.7,3.3,2.5,5.8,2.5c1.2,0,2.3-0.2,3.2-0.6C252.4,140.9,253.3,140.3,254.1,139.5L254.1,139.5z"/>
	<path class="st1" d="M260.8,133.3h11.1v-0.8c0-2.1-0.2-3.8-0.6-5.1c-0.4-1.2-1-2.2-1.8-3c-0.8-0.7-1.6-1.2-2.4-1.5
		c-0.8-0.3-1.7-0.4-2.7-0.4c-1.2,0-2.2,0.2-3.1,0.6c-0.9,0.4-1.8,1-2.5,1.9c-0.8,0.9-1.4,2-1.8,3.1c-0.4,1.1-0.5,2.5-0.5,4.1
		c0,1.5,0.2,2.8,0.6,4c0.4,1.2,1,2.2,1.7,3c0.7,0.8,1.6,1.5,2.7,1.9c1,0.5,2.2,0.7,3.5,0.7c2.5,0,4.7-0.8,6.6-2.5L270,137
		c-1.4,1.2-3,1.8-4.6,1.8c-0.9,0-1.7-0.2-2.2-0.5c-0.6-0.3-1.1-0.7-1.4-1.2c-0.4-0.5-0.6-1.1-0.7-1.7c-0.1-0.6-0.2-1.3-0.2-1.9
		V133.3L260.8,133.3z M267.7,130.4h-6.9c0-1.5,0.3-2.7,0.9-3.5c0.6-0.8,1.5-1.2,2.7-1.2c1,0,1.8,0.4,2.5,1.2
		C267.4,127.7,267.7,128.9,267.7,130.4L267.7,130.4z"/>
	<path class="st1" d="M301.5,130.1c0-3.6-0.9-6.3-2.7-8.2c-0.6-0.6-1.2-1.1-1.9-1.5s-1.4-0.7-2.2-1c-0.8-0.3-1.7-0.4-2.6-0.5
		c-1-0.1-2-0.2-3.2-0.2h-5.2v22.8h6.2c1.2,0,2.2,0,3.1-0.1c0.9-0.1,1.7-0.3,2.4-0.5c0.7-0.3,1.3-0.6,1.9-1c0.6-0.4,1.1-0.9,1.6-1.5
		c0.9-1,1.5-2.2,2-3.5C301.3,133.4,301.5,131.9,301.5,130.1L301.5,130.1z M296.8,130.5c0,2.6-0.5,4.5-1.4,5.8c-1,1.3-2.6,2-4.8,2
		h-2.8v-16.7h2.7c1.2,0,2.1,0.1,2.8,0.4s1.3,0.8,1.9,1.5c0.7,0.8,1.1,1.8,1.3,2.9C296.7,127.7,296.8,129,296.8,130.5L296.8,130.5z"
		/>
	<path class="st1" d="M309.6,133.3h11.1v-0.8c0-2.1-0.2-3.8-0.6-5.1c-0.4-1.2-1-2.2-1.8-3c-0.8-0.7-1.6-1.2-2.4-1.5
		c-0.8-0.3-1.7-0.4-2.7-0.4c-1.2,0-2.2,0.2-3.1,0.6c-0.9,0.4-1.8,1-2.5,1.9c-0.8,0.9-1.4,2-1.8,3.1c-0.4,1.1-0.5,2.5-0.5,4.1
		c0,1.5,0.2,2.8,0.6,4c0.4,1.2,1,2.2,1.7,3s1.6,1.5,2.7,1.9c1,0.5,2.2,0.7,3.5,0.7c2.5,0,4.7-0.8,6.6-2.5l-1.6-2.5
		c-1.4,1.2-3,1.8-4.6,1.8c-0.9,0-1.7-0.2-2.2-0.5c-0.6-0.3-1.1-0.7-1.4-1.2c-0.4-0.5-0.6-1.1-0.7-1.7c-0.1-0.6-0.2-1.3-0.2-1.9
		V133.3L309.6,133.3z M316.5,130.4h-6.9c0-1.5,0.3-2.7,0.9-3.5c0.6-0.8,1.5-1.2,2.7-1.2c1,0,1.8,0.4,2.5,1.2
		C316.2,127.7,316.5,128.9,316.5,130.4L316.5,130.4z"/>
	<path class="st0" d="M338.1,135.7c0-0.5-0.1-1.1-0.2-1.6c-0.1-0.5-0.4-1-0.7-1.4c-0.4-0.4-0.8-0.9-1.4-1.2
		c-0.6-0.4-1.4-0.7-2.3-0.9l-2.3-0.6c-0.9-0.2-1.6-0.5-1.9-0.8c-0.4-0.3-0.5-0.8-0.5-1.3c0-0.7,0.3-1.3,0.8-1.7
		c0.5-0.4,1.2-0.6,2-0.6c0.7,0,1.4,0.1,2.2,0.3c0.7,0.2,1.5,0.6,2.3,1l1.3-2.8c-0.8-0.4-1.7-0.8-2.7-1.1c-1-0.3-2.2-0.5-3.4-0.5
		c-1,0-2,0.1-2.8,0.4c-0.8,0.3-1.6,0.7-2.2,1.2c-0.6,0.5-1.1,1.1-1.4,1.8c-0.3,0.7-0.5,1.5-0.5,2.4c0,1.3,0.4,2.4,1.2,3.3
		c0.8,0.9,1.9,1.5,3.2,1.8l2.2,0.5c1,0.2,1.8,0.5,2.3,0.9c0.5,0.4,0.7,1,0.7,1.7c0,0.8-0.3,1.4-0.8,1.9s-1.3,0.7-2.2,0.7
		c-1,0-2.1-0.2-3.2-0.6c-1.1-0.4-2-0.8-2.8-1.3l-1.4,2.9c1.2,0.7,2.4,1.2,3.6,1.5c1.2,0.4,2.4,0.5,3.5,0.5c1.1,0,2.1-0.2,3.1-0.5
		c0.9-0.3,1.7-0.7,2.4-1.3c0.7-0.5,1.2-1.2,1.5-2C337.9,137.5,338.1,136.6,338.1,135.7L338.1,135.7z"/>
	<path class="st1" d="M342.4,141.5h4v-18.9l-4,0.7V141.5L342.4,141.5z M347.1,117.6c0-0.8-0.3-1.4-0.8-1.9c-0.5-0.5-1.1-0.8-1.8-0.8
		c-0.7,0-1.4,0.3-1.9,0.8c-0.5,0.5-0.8,1.2-0.8,1.9c0,0.7,0.2,1.4,0.7,1.9c0.5,0.5,1.1,0.8,1.8,0.8c0.7,0,1.4-0.3,1.9-0.8
		C346.8,118.9,347.1,118.3,347.1,117.6L347.1,117.6z"/>
	<path class="st1" d="M369.6,124.7l-1.9-2.5c-1.1,0.9-2.2,1.3-3.3,1.3c-0.4,0-0.7,0-1.1-0.1c-0.4-0.1-0.8-0.2-1.3-0.3
		c-0.4-0.1-0.9-0.2-1.5-0.3c-0.5-0.1-1.1-0.1-1.8-0.1c-1.1,0-2.1,0.1-3,0.4c-0.9,0.3-1.7,0.7-2.3,1.3c-0.6,0.5-1.1,1.2-1.5,2
		c-0.4,0.8-0.5,1.6-0.5,2.6c0,2.7,1.4,4.4,4.2,5.2c-1,0.3-1.9,0.7-2.5,1.1c-0.7,0.5-1,1.1-1,2c0,0.5,0.1,0.9,0.3,1.2
		c0.2,0.4,0.5,0.6,0.9,0.9c0.4,0.2,1.1,0.4,1.8,0.5c0.8,0.1,1.8,0.2,3,0.2c1.8,0,3,0.2,3.9,0.5c0.8,0.3,1.2,1,1.2,2
		c0,0.8-0.4,1.5-1.1,2c-0.7,0.5-1.8,0.8-3.3,0.8c-1.3,0-2.3-0.2-3-0.7c-0.7-0.4-1-1.1-1-1.9c0-0.3,0-0.6,0.1-0.8l0.1-0.4h-3.8
		l-0.2,0.6c-0.1,0.4-0.2,0.9-0.2,1.3c0,0.9,0.2,1.6,0.6,2.2c0.4,0.6,1,1.1,1.7,1.6c0.7,0.4,1.6,0.7,2.6,0.9c1,0.2,2.1,0.3,3.3,0.3
		c2.5,0,4.5-0.5,6-1.5c1.5-1,2.2-2.5,2.2-4.5c0-0.9-0.2-1.8-0.5-2.4c-0.4-0.7-0.8-1.2-1.4-1.6c-0.6-0.4-1.2-0.7-2-0.9
		c-0.7-0.2-1.5-0.3-2.2-0.3c-1.1,0-1.9,0-2.6,0c-0.6,0-1.1,0-1.4-0.1c-0.3-0.1-0.5-0.1-0.6-0.2c-0.1-0.1-0.1-0.2-0.1-0.4
		c0-0.3,0.2-0.6,0.7-0.9c0.5-0.3,1.1-0.6,1.7-0.8c1.1,0,2.1-0.1,2.9-0.4c0.9-0.3,1.6-0.7,2.2-1.2c0.6-0.5,1-1.1,1.4-1.8
		c0.3-0.7,0.5-1.4,0.5-2.2c0-0.6-0.1-1.2-0.3-1.7c-0.2-0.5-0.4-0.9-0.6-1.1c-0.2-0.2-0.3-0.4-0.3-0.4l0.4,0.1
		c0.3,0.1,0.6,0.1,1.1,0.1c0.6,0,1.2-0.1,1.7-0.3C368.6,125.5,369.1,125.2,369.6,124.7L369.6,124.7z M361.9,128.8
		c0,2.1-1.1,3.1-3.2,3.1c-1,0-1.8-0.2-2.3-0.7c-0.5-0.5-0.8-1.3-0.8-2.3c0-1,0.3-1.8,0.8-2.4c0.5-0.5,1.3-0.8,2.3-0.8
		C360.9,125.7,361.9,126.7,361.9,128.8L361.9,128.8z"/>
	<path class="st0" d="M382.3,141.5h4v-13.8c0-1.7-0.4-3-1.3-3.8c-0.9-0.9-2-1.3-3.5-1.3c-1,0-2,0.2-2.8,0.6
		c-0.9,0.4-1.8,1.1-2.8,1.9c0-0.5-0.1-0.9-0.2-1.4c-0.1-0.4-0.3-0.8-0.5-1.3l-3.7,1c0.3,0.7,0.5,1.3,0.5,2c0.1,0.6,0.1,1.5,0.1,2.4
		v13.6h4v-13.4c0.6-0.6,1.3-1.1,2-1.5s1.4-0.6,2-0.6c0.8,0,1.3,0.2,1.6,0.7c0.3,0.4,0.5,1.3,0.5,2.5V141.5L382.3,141.5z"/>
	<path class="st2" d="M378.2,69.4c1.9-1.4,2-2.5,0.2-3c-8.8-4.8-16.4-8.1-22.7-10.2c-1.8-0.6-3.1-0.7-3.6-0.4
		c-0.2,0.5-0.3,1.5-0.1,3.5c1.1,12.4,0.7,21-1.3,25.5c-1.8,4.2-0.5,5.1,3.8,2.4C360.5,83.1,368.7,77.2,378.2,69.4L378.2,69.4z
		 M391.1,44.9c-1,4.4-3.4,10.6-7.3,18.8c-0.8,2.1,0,2.8,2.7,2c5.2-0.8,9.7-0.8,13.4,1.1c1.6,0.6,1.9-1,1.5-4.7
		c-0.8-7.4-2.5-14-5.3-19.5C394,38.3,392.3,39,391.1,44.9L391.1,44.9z M381.7,16.9c-2.3-3-4-4.6-4.8-4.8c-1-0.1-2.4,1-3.9,3.4
		c-1.5,2.2-3.8,4.2-6.4,6.2c-2.1,1.2-2,2.5,0.6,3c5.7,1.9,12.9,5.4,21.1,10.1c1.9,1.3,2.9,1.5,3.3,0.7c0.2-0.8,0-2.3-0.9-4.2
		C388.4,26.3,385.4,21.3,381.7,16.9L381.7,16.9z M347.4,48.6c2.6,3,4.4,3.6,5.4,0.9c0.2-0.3,2.5-7.3,7.3-20.8
		c1.3-3.9-0.3-5.5-5.2-4.2c-13.2,2.9-21.6,4.8-24.7,5.9c-4.4,1.5-5.2,2.8-2.3,4C335.9,37.5,342.5,42.3,347.4,48.6L347.4,48.6z
		 M383.9,107.5h-55.6c-7.9-10.2-17.8-23.6-19.8-26.6c2.1-0.8-0.2-0.1,3.1-1.6c3.2-1.5,6.1-4.2,8.6-8c2.5-3.7,3.7-8.8,3.7-15.1
		c0-10.2-3.6-17.6-10.8-22.2c-5.8-3.8-12.5-6.2-21.8-6.7C302.3,10.8,321.1,0,342.4,0c34.1,0,61.7,27.6,61.7,61.7
		C404.2,79.9,396.3,96.2,383.9,107.5L383.9,107.5z M280.7,61.7c0-4.4,0.5-8.8,1.4-12.9c9.4,3.2,8.1,16.8-1.1,18.5
		C280.8,65.4,280.7,63.6,280.7,61.7L280.7,61.7z"/>
</g>
</svg>
