<svg width="18" height="18" viewBox="0 0 18 18" fill="none" xmlns="http://www.w3.org/2000/svg">
<path d="M16.6519 3.10352H1.34807C0.603527 3.10352 0 3.70704 0 4.45158V13.5486C0 14.2931 0.603527 14.8966 1.34807 14.8966H16.6519C17.3964 14.8966 18 14.2931 18 13.5486V4.45158C18 3.70704 17.3965 3.10352 16.6519 3.10352Z" fill="#F5F5F5"/>
<path d="M0.0742188 4.01069H17.9259C17.7432 3.48275 17.242 3.10352 16.652 3.10352H1.34814C0.758078 3.10352 0.256926 3.48275 0.0742188 4.01069Z" fill="#FF4B55"/>
<path d="M18 6.73218H0V7.63931H18V6.73218Z" fill="#FF4B55"/>
<path d="M18 4.91772H0V5.82486H18V4.91772Z" fill="#FF4B55"/>
<path d="M0 9.1432C0 9.31459 0.138973 9.45356 0.310359 9.45356H18V8.54639H0V9.1432Z" fill="#FF4B55"/>
<path d="M18 12.1753H0V13.0825H18V12.1753Z" fill="#FF4B55"/>
<path d="M17.9259 13.9895H0.0742188C0.256926 14.5174 0.758113 14.8967 1.34814 14.8967H16.652C17.2421 14.8967 17.7432 14.5174 17.9259 13.9895Z" fill="#FF4B55"/>
<path d="M18 10.3608H0V11.268H18V10.3608Z" fill="#FF4B55"/>
<path d="M0.310359 9.45368H8.06899C8.24038 9.45368 8.37935 9.31471 8.37935 9.14332V3.41387C8.37935 3.24245 8.24038 3.10352 8.06899 3.10352H1.34807C0.603527 3.10355 0 3.70708 0 4.45162V9.14332C0 9.31475 0.138973 9.45368 0.310359 9.45368Z" fill="#41479B"/>
<path d="M0.871395 3.81591L0.940091 4.02192L1.15725 4.02357C1.18538 4.02382 1.19701 4.05968 1.17441 4.07638L0.999716 4.20537L1.06525 4.4124C1.07375 4.43919 1.0432 4.46141 1.02032 4.44503L0.843657 4.31878L0.666997 4.44506C0.64411 4.46145 0.61363 4.43923 0.622067 4.41244L0.687599 4.2054L0.512907 4.07641C0.490302 4.05968 0.501938 4.02382 0.530063 4.02361L0.747224 4.02196L0.815919 3.81594C0.824778 3.78922 0.862466 3.78922 0.871395 3.81591Z" fill="#F5F5F5"/>
<path d="M0.871395 4.89327L0.940091 5.09929L1.15725 5.10094C1.18538 5.10119 1.19701 5.13701 1.17441 5.15375L0.999716 5.28277L1.06525 5.4898C1.07375 5.51659 1.0432 5.53881 1.02032 5.52243L0.843657 5.39618L0.666997 5.52246C0.64411 5.53881 0.61363 5.51663 0.622067 5.48984L0.687599 5.2828L0.512907 5.15378C0.490302 5.13705 0.501938 5.10122 0.530063 5.10098L0.747224 5.09932L0.815919 4.89331C0.824778 4.86662 0.862466 4.86662 0.871395 4.89327Z" fill="#F5F5F5"/>
<path d="M0.871395 5.97118L0.940091 6.1772L1.15725 6.17885C1.18538 6.17909 1.19701 6.21492 1.17441 6.23165L0.999716 6.36068L1.06525 6.56771C1.07375 6.5945 1.0432 6.61672 1.02032 6.60034L0.843657 6.47409L0.666997 6.60037C0.64411 6.61672 0.61363 6.59457 0.622067 6.56775L0.687599 6.36071L0.512907 6.23169C0.490302 6.21495 0.501938 6.17913 0.530063 6.17888L0.747224 6.17723L0.815919 5.97122C0.824778 5.9445 0.862466 5.9445 0.871395 5.97118Z" fill="#F5F5F5"/>
<path d="M0.871395 7.04882L0.940091 7.25483L1.15725 7.25648C1.18538 7.25673 1.19701 7.29259 1.17441 7.30929L0.999716 7.43831L1.06525 7.64535C1.07375 7.67214 1.0432 7.69436 1.02032 7.67797L0.843657 7.55173L0.666997 7.67801C0.64411 7.69436 0.61363 7.67217 0.622067 7.64538L0.687599 7.43835L0.512907 7.30932C0.490302 7.29266 0.501938 7.25677 0.530063 7.25652L0.747224 7.25487L0.815919 7.04885C0.824778 7.02213 0.862466 7.02213 0.871395 7.04882Z" fill="#F5F5F5"/>
<path d="M0.871395 8.12643L0.940091 8.33244L1.15725 8.3341C1.18538 8.33434 1.19701 8.37017 1.17441 8.3869L0.999716 8.51592L1.06525 8.72296C1.07375 8.74975 1.0432 8.77197 1.02032 8.75558L0.843657 8.62934L0.666997 8.75562C0.64411 8.77197 0.61363 8.74978 0.622067 8.72299L0.687599 8.51596L0.512907 8.38693C0.490302 8.3702 0.501938 8.33438 0.530063 8.33413L0.747224 8.33248L0.815919 8.12646C0.824778 8.09978 0.862466 8.09978 0.871395 8.12643Z" fill="#F5F5F5"/>
<path d="M1.70782 4.34396L1.77652 4.54998L1.99368 4.55163C2.0218 4.55188 2.03344 4.58773 2.01083 4.60443L1.83614 4.73346L1.90167 4.94049C1.91018 4.96728 1.87963 4.9895 1.85674 4.97312L1.68008 4.84684L1.50342 4.97312C1.48054 4.98947 1.45006 4.96728 1.45849 4.94049L1.52402 4.73346L1.34933 4.60443C1.32673 4.5877 1.33836 4.55188 1.36649 4.55163L1.58365 4.54998L1.65234 4.34396C1.6612 4.31731 1.69893 4.31731 1.70782 4.34396Z" fill="#F5F5F5"/>
<path d="M1.70782 5.42162L1.77652 5.62764L1.99368 5.62929C2.0218 5.62954 2.03344 5.6654 2.01083 5.6821L1.83614 5.81112L1.90167 6.01816C1.91018 6.04494 1.87963 6.06716 1.85674 6.05078L1.68008 5.9245L1.50342 6.05078C1.48054 6.06713 1.45006 6.04498 1.45849 6.01816L1.52402 5.81112L1.34933 5.6821C1.32673 5.66543 1.33836 5.62954 1.36649 5.62929L1.58365 5.62764L1.65234 5.42162C1.6612 5.39494 1.69893 5.39494 1.70782 5.42162Z" fill="#F5F5F5"/>
<path d="M1.70782 6.4995L1.77652 6.70552L1.99368 6.70717C2.0218 6.70742 2.03344 6.74324 2.01083 6.75998L1.83614 6.889L1.90167 7.09604C1.91018 7.12282 1.87963 7.14504 1.85674 7.12866L1.68008 7.00238L1.50342 7.12866C1.48054 7.14501 1.45006 7.12282 1.45849 7.09604L1.52402 6.889L1.34933 6.75998C1.32673 6.74324 1.33836 6.70742 1.36649 6.70717L1.58365 6.70552L1.65234 6.4995C1.6612 6.47282 1.69893 6.47282 1.70782 6.4995Z" fill="#F5F5F5"/>
<path d="M1.70782 7.57712L1.77652 7.78313L1.99368 7.78478C2.0218 7.78503 2.03344 7.82085 2.01083 7.83759L1.83614 7.96661L1.90167 8.17365C1.91018 8.20044 1.87963 8.22265 1.85674 8.20627L1.68008 8.07999L1.50342 8.20627C1.48054 8.22265 1.45006 8.20044 1.45849 8.17365L1.52402 7.96661L1.34933 7.83759C1.32673 7.82085 1.33836 7.78503 1.36649 7.78478L1.58365 7.78313L1.65234 7.57712C1.6612 7.55047 1.69893 7.55047 1.70782 7.57712Z" fill="#F5F5F5"/>
<path d="M2.54425 3.81567L2.61294 4.02168L2.8301 4.02333C2.85823 4.02358 2.86986 4.05944 2.84726 4.07614L2.67257 4.20513L2.7381 4.41216C2.74661 4.43895 2.71606 4.46117 2.69317 4.44479L2.51651 4.31851L2.33985 4.44479C2.31696 4.46117 2.28648 4.43895 2.29492 4.41216L2.36045 4.20513L2.18576 4.07614C2.16315 4.05941 2.17479 4.02355 2.20291 4.02333L2.42008 4.02168L2.48877 3.81567C2.49763 3.78898 2.53535 3.78898 2.54425 3.81567Z" fill="#F5F5F5"/>
<path d="M2.54425 4.89328L2.61294 5.09929L2.8301 5.10095C2.85823 5.10119 2.86986 5.13702 2.84726 5.15375L2.67257 5.28277L2.7381 5.48981C2.74661 5.5166 2.71606 5.53882 2.69317 5.52243L2.51651 5.39615L2.33985 5.52243C2.31696 5.53878 2.28648 5.5166 2.29492 5.48981L2.36045 5.28277L2.18576 5.15375C2.16315 5.13702 2.17479 5.10119 2.20291 5.10095L2.42008 5.09929L2.48877 4.89328C2.49763 4.86663 2.53535 4.86663 2.54425 4.89328Z" fill="#F5F5F5"/>
<path d="M2.54425 5.97094L2.61294 6.17696L2.8301 6.17861C2.85823 6.17886 2.86986 6.21468 2.84726 6.23141L2.67257 6.36044L2.7381 6.56747C2.74661 6.59426 2.71606 6.61648 2.69317 6.6001L2.51651 6.47382L2.33985 6.6001C2.31696 6.61644 2.28648 6.5943 2.29492 6.56747L2.36045 6.36044L2.18576 6.23141C2.16315 6.21468 2.17479 6.17886 2.20291 6.17861L2.42008 6.17696L2.48877 5.97094C2.49763 5.94426 2.53535 5.94426 2.54425 5.97094Z" fill="#F5F5F5"/>
<path d="M2.54425 7.04882L2.61294 7.25484L2.8301 7.25649C2.85823 7.25674 2.86986 7.29259 2.84726 7.30929L2.67257 7.43832L2.7381 7.64535C2.74661 7.67214 2.71606 7.69436 2.69317 7.67798L2.51651 7.5517L2.33985 7.67798C2.31696 7.69432 2.28648 7.67214 2.29492 7.64535L2.36045 7.43832L2.18576 7.30929C2.16315 7.29263 2.17479 7.25674 2.20291 7.25649L2.42008 7.25484L2.48877 7.04882C2.49763 7.02214 2.53535 7.02214 2.54425 7.04882Z" fill="#F5F5F5"/>
<path d="M2.54425 8.12643L2.61294 8.33245L2.8301 8.3341C2.85823 8.33435 2.86986 8.37017 2.84726 8.3869L2.67257 8.51593L2.7381 8.72296C2.74661 8.74975 2.71606 8.77197 2.69317 8.75559L2.51651 8.62931L2.33985 8.75559C2.31696 8.77194 2.28648 8.74975 2.29492 8.72296L2.36045 8.51593L2.18576 8.3869C2.16315 8.37017 2.17479 8.33435 2.20291 8.3341L2.42008 8.33245L2.48877 8.12643C2.49763 8.09978 2.53535 8.09978 2.54425 8.12643Z" fill="#F5F5F5"/>
<path d="M3.38092 4.34396L3.44961 4.54998L3.66677 4.55163C3.6949 4.55188 3.70653 4.58773 3.68393 4.60443L3.50924 4.73346L3.57477 4.94049C3.58328 4.96728 3.55273 4.9895 3.52984 4.97312L3.35318 4.84684L3.17652 4.97312C3.15363 4.98947 3.12315 4.96728 3.13159 4.94049L3.19712 4.73346L3.02243 4.60443C2.99982 4.5877 3.01146 4.55188 3.03958 4.55163L3.25675 4.54998L3.32544 4.34396C3.33426 4.31731 3.37202 4.31731 3.38092 4.34396Z" fill="#F5F5F5"/>
<path d="M3.38092 5.42162L3.44961 5.62764L3.66677 5.62929C3.6949 5.62954 3.70653 5.6654 3.68393 5.6821L3.50924 5.81112L3.57477 6.01816C3.58328 6.04494 3.55273 6.06716 3.52984 6.05078L3.35318 5.9245L3.17652 6.05078C3.15363 6.06713 3.12315 6.04498 3.13159 6.01816L3.19712 5.81112L3.02243 5.6821C2.99982 5.66543 3.01146 5.62954 3.03958 5.62929L3.25675 5.62764L3.32544 5.42162C3.33426 5.39494 3.37202 5.39494 3.38092 5.42162Z" fill="#F5F5F5"/>
<path d="M3.38092 6.4995L3.44961 6.70552L3.66677 6.70717C3.6949 6.70742 3.70653 6.74324 3.68393 6.75998L3.50924 6.889L3.57477 7.09604C3.58328 7.12282 3.55273 7.14504 3.52984 7.12866L3.35318 7.00238L3.17652 7.12866C3.15363 7.14501 3.12315 7.12282 3.13159 7.09604L3.19712 6.889L3.02243 6.75998C2.99982 6.74324 3.01146 6.70742 3.03958 6.70717L3.25675 6.70552L3.32544 6.4995C3.33426 6.47282 3.37202 6.47282 3.38092 6.4995Z" fill="#F5F5F5"/>
<path d="M3.38092 7.57712L3.44961 7.78313L3.66677 7.78478C3.6949 7.78503 3.70653 7.82085 3.68393 7.83759L3.50924 7.96661L3.57477 8.17365C3.58328 8.20044 3.55273 8.22265 3.52984 8.20627L3.35318 8.07999L3.17652 8.20627C3.15363 8.22265 3.12315 8.20044 3.13159 8.17365L3.19712 7.96661L3.02243 7.83759C2.99982 7.82085 3.01146 7.78503 3.03958 7.78478L3.25675 7.78313L3.32544 7.57712C3.33426 7.55047 3.37202 7.55047 3.38092 7.57712Z" fill="#F5F5F5"/>
<path d="M4.21738 3.81566L4.28607 4.02168L4.50323 4.02333C4.53136 4.02358 4.543 4.05944 4.52039 4.07614L4.3457 4.20512L4.41123 4.41216C4.41974 4.43895 4.38919 4.46117 4.3663 4.44478L4.1896 4.31854L4.01294 4.44482C3.99006 4.4612 3.95958 4.43898 3.96801 4.41219L4.03355 4.20516L3.85885 4.07617C3.83625 4.05944 3.84789 4.02358 3.87601 4.02337L4.09317 4.02171L4.16187 3.8157C4.17076 3.78898 4.20848 3.78898 4.21738 3.81566Z" fill="#F5F5F5"/>
<path d="M4.21738 4.89328L4.28607 5.09929L4.50323 5.10095C4.53136 5.10119 4.543 5.13702 4.52039 5.15375L4.3457 5.28277L4.41123 5.48981C4.41974 5.5166 4.38919 5.53882 4.3663 5.52243L4.1896 5.39615L4.01294 5.52243C3.99006 5.53878 3.95958 5.5166 3.96801 5.48981L4.03355 5.28277L3.85885 5.15375C3.83625 5.13702 3.84789 5.10119 3.87601 5.10095L4.09317 5.09929L4.16187 4.89328C4.17076 4.86663 4.20848 4.86663 4.21738 4.89328Z" fill="#F5F5F5"/>
<path d="M4.21738 5.97094L4.28607 6.17696L4.50323 6.17861C4.53136 6.17886 4.543 6.21468 4.52039 6.23142L4.3457 6.36044L4.41123 6.56748C4.41974 6.59427 4.38919 6.61648 4.3663 6.6001L4.1896 6.47379L4.01294 6.60007C3.99006 6.61641 3.95958 6.59423 3.96801 6.56744L4.03355 6.36041L3.85885 6.23138C3.83625 6.21465 3.84789 6.17882 3.87601 6.17858L4.09317 6.17693L4.16187 5.97091C4.17076 5.94426 4.20848 5.94426 4.21738 5.97094Z" fill="#F5F5F5"/>
<path d="M4.21738 7.04882L4.28607 7.25484L4.50323 7.25649C4.53136 7.25674 4.543 7.29259 4.52039 7.30929L4.3457 7.43832L4.41123 7.64535C4.41974 7.67214 4.38919 7.69436 4.3663 7.67798L4.1896 7.5517L4.01294 7.67798C3.99006 7.69432 3.95958 7.67214 3.96801 7.64535L4.03355 7.43832L3.85885 7.30929C3.83625 7.29263 3.84789 7.25674 3.87601 7.25649L4.09317 7.25484L4.16187 7.04882C4.17076 7.02214 4.20848 7.02214 4.21738 7.04882Z" fill="#F5F5F5"/>
<path d="M4.21738 8.12643L4.28607 8.33245L4.50323 8.3341C4.53136 8.33435 4.543 8.37017 4.52039 8.3869L4.3457 8.51593L4.41123 8.72296C4.41974 8.74975 4.38919 8.77197 4.3663 8.75559L4.1896 8.62931L4.01294 8.75559C3.99006 8.77194 3.95958 8.74975 3.96801 8.72296L4.03355 8.51593L3.85885 8.3869C3.83625 8.37017 3.84789 8.33435 3.87601 8.3341L4.09317 8.33245L4.16187 8.12643C4.17076 8.09978 4.20848 8.09978 4.21738 8.12643Z" fill="#F5F5F5"/>
<path d="M5.05377 4.34396L5.12246 4.54998L5.33962 4.55163C5.36775 4.55188 5.37939 4.58773 5.35678 4.60443L5.18209 4.73346L5.24762 4.94049C5.25613 4.96728 5.22558 4.9895 5.20269 4.97312L5.02603 4.84684L4.84937 4.97312C4.82648 4.98947 4.796 4.96728 4.80444 4.94049L4.86997 4.73346L4.69528 4.60443C4.67267 4.5877 4.68431 4.55188 4.71244 4.55163L4.9296 4.54998L4.99829 4.34396C5.00719 4.31731 5.04487 4.31731 5.05377 4.34396Z" fill="#F5F5F5"/>
<path d="M5.05377 5.42162L5.12246 5.62764L5.33962 5.62929C5.36775 5.62954 5.37939 5.6654 5.35678 5.6821L5.18209 5.81112L5.24762 6.01816C5.25613 6.04494 5.22558 6.06716 5.20269 6.05078L5.02603 5.9245L4.84937 6.05078C4.82648 6.06713 4.796 6.04498 4.80444 6.01816L4.86997 5.81112L4.69528 5.6821C4.67267 5.66543 4.68431 5.62954 4.71244 5.62929L4.9296 5.62764L4.99829 5.42162C5.00719 5.39494 5.04487 5.39494 5.05377 5.42162Z" fill="#F5F5F5"/>
<path d="M5.05377 6.4995L5.12246 6.70552L5.33962 6.70717C5.36775 6.70742 5.37939 6.74324 5.35678 6.75998L5.18209 6.889L5.24762 7.09604C5.25613 7.12282 5.22558 7.14504 5.20269 7.12866L5.02603 7.00238L4.84937 7.12866C4.82648 7.14501 4.796 7.12282 4.80444 7.09604L4.86997 6.889L4.69528 6.75998C4.67267 6.74324 4.68431 6.70742 4.71244 6.70717L4.9296 6.70552L4.99829 6.4995C5.00719 6.47282 5.04487 6.47282 5.05377 6.4995Z" fill="#F5F5F5"/>
<path d="M5.05377 7.57712L5.12246 7.78313L5.33962 7.78478C5.36775 7.78503 5.37939 7.82085 5.35678 7.83759L5.18209 7.96661L5.24762 8.17365C5.25613 8.20044 5.22558 8.22265 5.20269 8.20627L5.02603 8.07999L4.84937 8.20627C4.82648 8.22265 4.796 8.20044 4.80444 8.17365L4.86997 7.96661L4.69528 7.83759C4.67267 7.82085 4.68431 7.78503 4.71244 7.78478L4.9296 7.78313L4.99829 7.57712C5.00719 7.55047 5.04487 7.55047 5.05377 7.57712Z" fill="#F5F5F5"/>
<path d="M5.89019 3.81567L5.95889 4.02168L6.17605 4.02333C6.20417 4.02358 6.21581 4.05944 6.19321 4.07614L6.01851 4.20513L6.08405 4.41216C6.09255 4.43895 6.062 4.46117 6.03912 4.44479L5.86246 4.31851L5.6858 4.44479C5.66291 4.46117 5.63243 4.43895 5.64087 4.41216L5.7064 4.20513L5.53171 4.07614C5.5091 4.05941 5.52074 4.02355 5.54886 4.02333L5.76602 4.02168L5.83472 3.81567C5.84354 3.78898 5.8813 3.78898 5.89019 3.81567Z" fill="#F5F5F5"/>
<path d="M5.89019 4.89328L5.95889 5.09929L6.17605 5.10095C6.20417 5.10119 6.21581 5.13702 6.19321 5.15375L6.01851 5.28277L6.08405 5.48981C6.09255 5.5166 6.062 5.53882 6.03912 5.52243L5.86246 5.39615L5.6858 5.52243C5.66291 5.53878 5.63243 5.5166 5.64087 5.48981L5.7064 5.28277L5.53171 5.15375C5.5091 5.13702 5.52074 5.10119 5.54886 5.10095L5.76602 5.09929L5.83472 4.89328C5.84354 4.86663 5.8813 4.86663 5.89019 4.89328Z" fill="#F5F5F5"/>
<path d="M5.89019 5.97094L5.95889 6.17696L6.17605 6.17861C6.20417 6.17886 6.21581 6.21468 6.19321 6.23141L6.01851 6.36044L6.08405 6.56747C6.09255 6.59426 6.062 6.61648 6.03912 6.6001L5.86246 6.47382L5.6858 6.6001C5.66291 6.61644 5.63243 6.5943 5.64087 6.56747L5.7064 6.36044L5.53171 6.23141C5.5091 6.21468 5.52074 6.17886 5.54886 6.17861L5.76602 6.17696L5.83472 5.97094C5.84354 5.94426 5.8813 5.94426 5.89019 5.97094Z" fill="#F5F5F5"/>
<path d="M5.89019 7.04882L5.95889 7.25484L6.17605 7.25649C6.20417 7.25674 6.21581 7.29259 6.19321 7.30929L6.01851 7.43832L6.08405 7.64535C6.09255 7.67214 6.062 7.69436 6.03912 7.67798L5.86246 7.5517L5.6858 7.67798C5.66291 7.69432 5.63243 7.67214 5.64087 7.64535L5.7064 7.43832L5.53171 7.30929C5.5091 7.29263 5.52074 7.25674 5.54886 7.25649L5.76602 7.25484L5.83472 7.04882C5.84354 7.02214 5.8813 7.02214 5.89019 7.04882Z" fill="#F5F5F5"/>
<path d="M5.89019 8.12643L5.95889 8.33245L6.17605 8.3341C6.20417 8.33435 6.21581 8.37017 6.19321 8.3869L6.01851 8.51593L6.08405 8.72296C6.09255 8.74975 6.062 8.77197 6.03912 8.75559L5.86246 8.62931L5.6858 8.75559C5.66291 8.77194 5.63243 8.74975 5.64087 8.72296L5.7064 8.51593L5.53171 8.3869C5.5091 8.37017 5.52074 8.33435 5.54886 8.3341L5.76602 8.33245L5.83472 8.12643C5.84354 8.09978 5.8813 8.09978 5.89019 8.12643Z" fill="#F5F5F5"/>
<path d="M6.72686 4.34396L6.79556 4.54998L7.01272 4.55163C7.04085 4.55188 7.05248 4.58773 7.02988 4.60443L6.85518 4.73346L6.92072 4.94049C6.92922 4.96728 6.89867 4.9895 6.87579 4.97312L6.69913 4.84684L6.52247 4.97312C6.49958 4.98947 6.4691 4.96728 6.47754 4.94049L6.54307 4.73346L6.36838 4.60443C6.34577 4.5877 6.35741 4.55188 6.38553 4.55163L6.60269 4.54998L6.67139 4.34396C6.68025 4.31731 6.71797 4.31731 6.72686 4.34396Z" fill="#F5F5F5"/>
<path d="M6.72686 5.42162L6.79556 5.62764L7.01272 5.62929C7.04085 5.62954 7.05248 5.6654 7.02988 5.6821L6.85518 5.81112L6.92072 6.01816C6.92922 6.04494 6.89867 6.06716 6.87579 6.05078L6.69913 5.9245L6.52247 6.05078C6.49958 6.06713 6.4691 6.04498 6.47754 6.01816L6.54307 5.81112L6.36838 5.6821C6.34577 5.66543 6.35741 5.62954 6.38553 5.62929L6.60269 5.62764L6.67139 5.42162C6.68025 5.39494 6.71797 5.39494 6.72686 5.42162Z" fill="#F5F5F5"/>
<path d="M6.72686 6.4995L6.79556 6.70552L7.01272 6.70717C7.04085 6.70742 7.05248 6.74324 7.02988 6.75998L6.85518 6.889L6.92072 7.09604C6.92922 7.12282 6.89867 7.14504 6.87579 7.12866L6.69913 7.00238L6.52247 7.12866C6.49958 7.14501 6.4691 7.12282 6.47754 7.09604L6.54307 6.889L6.36838 6.75998C6.34577 6.74324 6.35741 6.70742 6.38553 6.70717L6.60269 6.70552L6.67139 6.4995C6.68025 6.47282 6.71797 6.47282 6.72686 6.4995Z" fill="#F5F5F5"/>
<path d="M6.72686 7.57712L6.79556 7.78313L7.01272 7.78478C7.04085 7.78503 7.05248 7.82085 7.02988 7.83759L6.85518 7.96661L6.92072 8.17365C6.92922 8.20044 6.89867 8.22265 6.87579 8.20627L6.69913 8.07999L6.52247 8.20627C6.49958 8.22265 6.4691 8.20044 6.47754 8.17365L6.54307 7.96661L6.36838 7.83759C6.34577 7.82085 6.35741 7.78503 6.38553 7.78478L6.60269 7.78313L6.67139 7.57712C6.68025 7.55047 6.71797 7.55047 6.72686 7.57712Z" fill="#F5F5F5"/>
<path d="M7.56329 3.81567L7.63199 4.02168L7.84915 4.02333C7.87727 4.02358 7.88891 4.05944 7.8663 4.07614L7.69161 4.20513L7.75714 4.41216C7.76565 4.43895 7.7351 4.46117 7.71221 4.44479L7.53555 4.31851L7.35889 4.44479C7.33601 4.46117 7.30552 4.43895 7.31396 4.41216L7.37949 4.20513L7.2048 4.07614C7.1822 4.05941 7.19383 4.02355 7.22196 4.02333L7.43912 4.02168L7.50781 3.81567C7.51667 3.78898 7.55436 3.78898 7.56329 3.81567Z" fill="#F5F5F5"/>
<path d="M7.56329 4.89328L7.63199 5.09929L7.84915 5.10095C7.87727 5.10119 7.88891 5.13702 7.8663 5.15375L7.69161 5.28277L7.75714 5.48981C7.76565 5.5166 7.7351 5.53882 7.71221 5.52243L7.53555 5.39615L7.35889 5.52243C7.33601 5.53878 7.30552 5.5166 7.31396 5.48981L7.37949 5.28277L7.2048 5.15375C7.1822 5.13702 7.19383 5.10119 7.22196 5.10095L7.43912 5.09929L7.50781 4.89328C7.51667 4.86663 7.55436 4.86663 7.56329 4.89328Z" fill="#F5F5F5"/>
<path d="M7.56329 5.97094L7.63199 6.17696L7.84915 6.17861C7.87727 6.17886 7.88891 6.21468 7.8663 6.23141L7.69161 6.36044L7.75714 6.56747C7.76565 6.59426 7.7351 6.61648 7.71221 6.6001L7.53555 6.47382L7.35889 6.6001C7.33601 6.61644 7.30552 6.5943 7.31396 6.56747L7.37949 6.36044L7.2048 6.23141C7.1822 6.21468 7.19383 6.17886 7.22196 6.17861L7.43912 6.17696L7.50781 5.97094C7.51667 5.94426 7.55436 5.94426 7.56329 5.97094Z" fill="#F5F5F5"/>
<path d="M7.56329 7.04882L7.63199 7.25484L7.84915 7.25649C7.87727 7.25674 7.88891 7.29259 7.8663 7.30929L7.69161 7.43832L7.75714 7.64535C7.76565 7.67214 7.7351 7.69436 7.71221 7.67798L7.53555 7.5517L7.35889 7.67798C7.33601 7.69432 7.30552 7.67214 7.31396 7.64535L7.37949 7.43832L7.2048 7.30929C7.1822 7.29263 7.19383 7.25674 7.22196 7.25649L7.43912 7.25484L7.50781 7.04882C7.51667 7.02214 7.55436 7.02214 7.56329 7.04882Z" fill="#F5F5F5"/>
<path d="M7.56329 8.12643L7.63199 8.33245L7.84915 8.3341C7.87727 8.33435 7.88891 8.37017 7.8663 8.3869L7.69161 8.51593L7.75714 8.72296C7.76565 8.74975 7.7351 8.77197 7.71221 8.75559L7.53555 8.62931L7.35889 8.75559C7.33601 8.77194 7.30552 8.74975 7.31396 8.72296L7.37949 8.51593L7.2048 8.3869C7.1822 8.37017 7.19383 8.33435 7.22196 8.3341L7.43912 8.33245L7.50781 8.12643C7.51667 8.09978 7.55436 8.09978 7.56329 8.12643Z" fill="#F5F5F5"/>
</svg>
